<?xml version="1.0" encoding="UTF-8" standalone="no"?>
<!-- Created with Inkscape (http://www.inkscape.org/) -->

<svg
   version="1.1"
   id="svg2615"
   width="471"
   height="471.10623"
   viewBox="0 0 471 471.10623"
   sodipodi:docname="lenguaje-de-codificacion.png"
   inkscape:export-filename="logo.svg"
   inkscape:export-xdpi="96"
   inkscape:export-ydpi="96"
   xmlns:inkscape="http://www.inkscape.org/namespaces/inkscape"
   xmlns:sodipodi="http://sodipodi.sourceforge.net/DTD/sodipodi-0.dtd"
   xmlns="http://www.w3.org/2000/svg"
   xmlns:svg="http://www.w3.org/2000/svg">
  <defs
     id="defs2619" />
  <sodipodi:namedview
     id="namedview2617"
     pagecolor="#ffffff"
     bordercolor="#000000"
     borderopacity="0.25"
     inkscape:showpageshadow="2"
     inkscape:pageopacity="0.0"
     inkscape:pagecheckerboard="0"
     inkscape:deskcolor="#d1d1d1"
     showgrid="false" />
  <g
     inkscape:groupmode="layer"
     id="layer1"
     inkscape:label="Fondo"
     transform="translate(-24.400951,-18.549524)">
    <rect
       style="fill:#ffffff;fill-opacity:1"
       id="rect4665"
       width="375.46664"
       height="330.60568"
       x="67.779068"
       y="88.259064" />
  </g>
  <g
     inkscape:groupmode="layer"
     inkscape:label="Image"
     id="g2621"
     transform="translate(-24.400951,-18.549524)">
    <path
       style="fill:#345cad;fill-opacity:1"
       d="M 134.1865,488.96869 C 113.74133,486.53595 91.592817,477.63497 74.838202,465.11797 66.577954,458.94693 53.851687,445.92448 47.637423,437.28415 37.460959,423.13476 30.122611,406.26412 26.221461,388.04952 c -1.70585,-7.96467 -1.82051,-16.40396 -1.82051,-134 0,-117.59604 0.11466,-126.03533 1.82051,-134 11.021324,-51.458941 48.220544,-88.658163 99.679489,-99.679491 7.96467,-1.70585 16.40396,-1.820505 134,-1.820505 117.59604,0 126.03533,0.114655 134,1.820505 51.491,11.028194 88.6513,48.18849 99.67949,99.679491 1.70586,7.96467 1.82051,16.40396 1.82051,134 0,117.59604 -0.11465,126.03533 -1.82051,134 -10.89092,50.85011 -47.12977,87.43411 -98.67949,99.61935 -6.94236,1.64102 -16.64536,1.78717 -130.5,1.96555 -67.65,0.10599 -126.2465,-0.19359 -130.21445,-0.66573 z m 109.40675,-93.42043 c 5.81384,-1.72653 12.32248,-7.98347 14.18958,-13.64084 0.63056,-1.91061 11.72393,-58.34775 24.65194,-125.41587 18.08481,-93.82067 23.3602,-122.91708 22.87557,-126.1701 -1.38718,-9.31121 -9.90714,-17.55602 -19.5007,-18.87097 -9.02016,-1.23635 -18.98905,3.92791 -22.6995,11.75918 -3.06522,6.46945 -49.60276,248.97712 -48.77383,254.16098 1.145,7.16044 5.40272,13.48474 11.05817,16.42551 6.77575,3.52331 10.89804,3.92019 18.19877,1.75211 z m -70.6278,-63.24874 c 7.61667,-3.86232 11.2149,-9.27413 11.74961,-17.67166 0.69534,-10.91997 0.0655,-11.88492 -22.9586,-35.17284 -27.58847,-27.90462 -27.5503,-23.00832 -0.39274,-50.368 12.79708,-12.89232 21.03865,-21.99332 22,-24.29416 2.22712,-5.33025 1.97463,-14.20835 -0.55256,-19.42883 -4.94788,-10.22095 -18.09037,-15.15814 -28.69233,-10.77875 -5.09049,2.10275 -67.693699,64.40821 -70.298592,69.96424 -2.297017,4.89936 -2.471713,13.22688 -0.383527,18.28212 2.102747,5.09049 64.408209,67.6937 69.964239,70.29859 5.93507,2.78261 13.03323,2.48122 19.5645,-0.83071 z m 191.31948,1.57669 c 3.46055,-0.98646 9.3361,-6.36032 36.89549,-33.74516 21.17601,-21.04188 33.47702,-34.01278 34.75,-36.64242 2.53109,-5.22853 2.55846,-13.58362 0.062,-18.93911 -1.23156,-2.64202 -13.02155,-15.06681 -34.72804,-36.59786 -29.95781,-29.71569 -33.2847,-32.71156 -37.62776,-33.88396 -14.66742,-3.95943 -28.70224,6.42949 -28.72632,21.26394 -0.005,3.18016 0.68237,7.43771 1.52785,9.46122 0.96135,2.30084 9.20292,11.40184 22,24.29416 27.16007,27.36222 27.15347,22.61025 0.0693,49.90812 -11.2164,11.30491 -21.05625,21.90438 -21.86633,23.55438 -4.25222,8.66109 -2.45366,18.83914 4.57027,25.86307 6.18336,6.18336 14.03035,8.04146 23.07354,5.46362 z"
       id="path3885" />
  </g>
</svg>
